<svg xmlns="http://www.w3.org/2000/svg" viewBox="0 0 1000 800" width="100%" height="100%" style="background-color: #1a1a1a; font-family: sans-serif;">
    <!-- 定義箭頭與漸變 -->
    <defs>
        <marker id="arrow" viewBox="0 0 10 10" refX="25" refY="5" markerWidth="6" markerHeight="6" orient="auto-start-reverse">
            <path d="M 0 0 L 10 5 L 0 10 z" fill="#888" />
        </marker>
        <marker id="arrow-reveal" viewBox="0 0 10 10" refX="25" refY="5" markerWidth="6" markerHeight="6" orient="auto-start-reverse">
            <path d="M 0 0 L 10 5 L 0 10 z" fill="#da70d6" />
        </marker>
    </defs>
    
    <text x="500" y="30" font-size="22" fill="#fff" font-weight="bold" text-anchor="middle">尋仙問道 — 沙盒地圖 (Novice Map) 視覺化</text>
    <text x="500" y="55" font-size="12" fill="#888" text-anchor="middle">實線：普通路徑 | 虛線：Reveal 隱秘路徑</text>
    <line x1="400" y1="50" x2="400" y2="150" stroke="#555" stroke-width="2" marker-end="url(#arrow)" />
    <text x="400.0" y="95.0" font-size="9" fill="#aaa" text-anchor="middle">down</text>
    <line x1="400" y1="150" x2="400" y2="50" stroke="#555" stroke-width="2" marker-end="url(#arrow)" />
    <text x="400.0" y="95.0" font-size="9" fill="#aaa" text-anchor="middle">up</text>
    <line x1="400" y1="150" x2="400" y2="250" stroke="#555" stroke-width="2" marker-end="url(#arrow)" />
    <text x="400.0" y="195.0" font-size="9" fill="#aaa" text-anchor="middle">down</text>
    <line x1="400" y1="150" x2="650" y2="150" stroke="#555" stroke-width="2" marker-end="url(#arrow)" />
    <text x="525.0" y="145.0" font-size="9" fill="#aaa" text-anchor="middle">east</text>
    <line x1="650" y1="150" x2="400" y2="150" stroke="#555" stroke-width="2" marker-end="url(#arrow)" />
    <text x="525.0" y="145.0" font-size="9" fill="#aaa" text-anchor="middle">west</text>
    <line x1="400" y1="520" x2="400" y2="380" stroke="#555" stroke-width="2" marker-end="url(#arrow)" />
    <text x="400.0" y="445.0" font-size="9" fill="#aaa" text-anchor="middle">south</text>
    <line x1="620" y1="380" x2="400" y2="380" stroke="#555" stroke-width="2" marker-end="url(#arrow)" />
    <text x="510.0" y="375.0" font-size="9" fill="#aaa" text-anchor="middle">west</text>
    <line x1="180" y1="380" x2="400" y2="380" stroke="#555" stroke-width="2" marker-end="url(#arrow)" />
    <text x="290.0" y="375.0" font-size="9" fill="#aaa" text-anchor="middle">east</text>
    <line x1="400" y1="250" x2="400" y2="150" stroke="#555" stroke-width="2" marker-end="url(#arrow)" />
    <text x="400.0" y="195.0" font-size="9" fill="#aaa" text-anchor="middle">up</text>
    <line x1="400" y1="250" x2="400" y2="380" stroke="#555" stroke-width="2" marker-end="url(#arrow)" />
    <text x="400.0" y="310.0" font-size="9" fill="#aaa" text-anchor="middle">enter</text>
    <line x1="400" y1="380" x2="400" y2="250" stroke="#555" stroke-width="2" marker-end="url(#arrow)" />
    <text x="400.0" y="310.0" font-size="9" fill="#aaa" text-anchor="middle">leave</text>
    <line x1="400" y1="380" x2="400" y2="520" stroke="#555" stroke-width="2" marker-end="url(#arrow)" />
    <text x="400.0" y="445.0" font-size="9" fill="#aaa" text-anchor="middle">north</text>
    <line x1="400" y1="380" x2="620" y2="380" stroke="#555" stroke-width="2" marker-end="url(#arrow)" />
    <text x="510.0" y="375.0" font-size="9" fill="#aaa" text-anchor="middle">east</text>
    <line x1="400" y1="380" x2="180" y2="380" stroke="#555" stroke-width="2" marker-end="url(#arrow)" />
    <text x="290.0" y="375.0" font-size="9" fill="#aaa" text-anchor="middle">west</text>
    <line x1="400" y1="380" x2="400" y2="640" stroke="#555" stroke-width="2" marker-end="url(#arrow)" />
    <text x="400.0" y="505.0" font-size="9" fill="#aaa" text-anchor="middle">south</text>
    <line x1="400" y1="380" x2="620" y2="500" stroke="#555" stroke-width="2" marker-end="url(#arrow)" />
    <text x="510.0" y="435.0" font-size="9" fill="#aaa" text-anchor="middle">southeast</text>
    <line x1="400" y1="380" x2="180" y2="500" stroke="#555" stroke-width="2" marker-end="url(#arrow)" />
    <text x="290.0" y="435.0" font-size="9" fill="#aaa" text-anchor="middle">southwest</text>
    <line x1="400" y1="380" x2="180" y2="640" stroke="#555" stroke-width="2" marker-end="url(#arrow)" />
    <text x="290.0" y="505.0" font-size="9" fill="#aaa" text-anchor="middle">down</text>
    <line x1="400" y1="640" x2="400" y2="380" stroke="#555" stroke-width="2" marker-end="url(#arrow)" />
    <text x="400.0" y="505.0" font-size="9" fill="#aaa" text-anchor="middle">north</text>
    <line x1="400" y1="640" x2="620" y2="640" stroke="#555" stroke-width="2" marker-end="url(#arrow)" />
    <text x="510.0" y="635.0" font-size="9" fill="#aaa" text-anchor="middle">east</text>
    <line x1="620" y1="640" x2="400" y2="640" stroke="#555" stroke-width="2" marker-end="url(#arrow)" />
    <text x="510.0" y="635.0" font-size="9" fill="#aaa" text-anchor="middle">west</text>
    <line x1="620" y1="500" x2="400" y2="380" stroke="#555" stroke-width="2" marker-end="url(#arrow)" />
    <text x="510.0" y="435.0" font-size="9" fill="#aaa" text-anchor="middle">northwest</text>
    <line x1="180" y1="500" x2="400" y2="380" stroke="#555" stroke-width="2" marker-end="url(#arrow)" />
    <text x="290.0" y="435.0" font-size="9" fill="#aaa" text-anchor="middle">northeast</text>
    <line x1="180" y1="640" x2="400" y2="380" stroke="#555" stroke-width="2" marker-end="url(#arrow)" />
    <text x="290.0" y="505.0" font-size="9" fill="#aaa" text-anchor="middle">up</text>
    <rect x="330" y="30" width="140" height="40" rx="5" fill="#d4af37" stroke="#333" stroke-width="2" />
    <text x="400" y="46" font-size="12" fill="#fff" font-weight="bold" text-anchor="middle">靜慮崖</text>
    <text x="400" y="62" font-size="9" fill="#ddd" text-anchor="middle">cultivation</text>
    <rect x="330" y="130" width="140" height="40" rx="5" fill="#708090" stroke="#333" stroke-width="2" />
    <text x="400" y="146" font-size="12" fill="#fff" font-weight="bold" text-anchor="middle">蜀山山道</text>
    <text x="400" y="162" font-size="9" fill="#ddd" text-anchor="middle">travel</text>
    <rect x="580" y="130" width="140" height="40" rx="5" fill="#4169e1" stroke="#333" stroke-width="2" />
    <text x="650" y="146" font-size="12" fill="#fff" font-weight="bold" text-anchor="middle">藏經閣</text>
    <text x="650" y="162" font-size="9" fill="#ddd" text-anchor="middle">sect_heritage</text>
    <rect x="330" y="500" width="140" height="40" rx="5" fill="#cd7f32" stroke="#333" stroke-width="2" />
    <text x="400" y="516" font-size="12" fill="#fff" font-weight="bold" text-anchor="middle">百工坊</text>
    <text x="400" y="532" font-size="9" fill="#ddd" text-anchor="middle">crafting</text>
    <rect x="550" y="360" width="140" height="40" rx="5" fill="#228b22" stroke="#333" stroke-width="2" />
    <text x="620" y="376" font-size="12" fill="#fff" font-weight="bold" text-anchor="middle">神草園</text>
    <text x="620" y="392" font-size="9" fill="#ddd" text-anchor="middle">alchemy</text>
    <rect x="110" y="360" width="140" height="40" rx="5" fill="#9370db" stroke="#333" stroke-width="2" />
    <text x="180" y="376" font-size="12" fill="#fff" font-weight="bold" text-anchor="middle">八卦壇</text>
    <text x="180" y="392" font-size="9" fill="#ddd" text-anchor="middle">logical_array</text>
    <rect x="330" y="230" width="140" height="40" rx="5" fill="#708090" stroke="#333" stroke-width="2" />
    <text x="400" y="246" font-size="12" fill="#fff" font-weight="bold" text-anchor="middle">紅塵鎮牌坊</text>
    <text x="400" y="262" font-size="9" fill="#ddd" text-anchor="middle">travel</text>
    <rect x="330" y="360" width="140" height="40" rx="5" fill="#ff4500" stroke="#333" stroke-width="2" />
    <text x="400" y="376" font-size="12" fill="#fff" font-weight="bold" text-anchor="middle">紅塵集市</text>
    <text x="400" y="392" font-size="9" fill="#ddd" text-anchor="middle">market</text>
    <rect x="330" y="620" width="140" height="40" rx="5" fill="#8b4513" stroke="#333" stroke-width="2" />
    <text x="400" y="636" font-size="12" fill="#fff" font-weight="bold" text-anchor="middle">臨風酒館</text>
    <text x="400" y="652" font-size="9" fill="#ddd" text-anchor="middle">social_info</text>
    <rect x="550" y="620" width="140" height="40" rx="5" fill="#3cb371" stroke="#333" stroke-width="2" />
    <text x="620" y="636" font-size="12" fill="#fff" font-weight="bold" text-anchor="middle">靈獸齋</text>
    <text x="620" y="652" font-size="9" fill="#ddd" text-anchor="middle">nature_resonance</text>
    <rect x="550" y="480" width="140" height="40" rx="5" fill="#2f4f4f" stroke="#333" stroke-width="2" />
    <text x="620" y="496" font-size="12" fill="#fff" font-weight="bold" text-anchor="middle">紅塵當舖</text>
    <text x="620" y="512" font-size="9" fill="#ddd" text-anchor="middle">karmic_broker</text>
    <rect x="110" y="480" width="140" height="40" rx="5" fill="#da70d6" stroke="#333" stroke-width="2" />
    <text x="180" y="496" font-size="12" fill="#fff" font-weight="bold" text-anchor="middle">天珍拍賣行</text>
    <text x="180" y="512" font-size="9" fill="#ddd" text-anchor="middle">spiritual_market</text>
    <rect x="110" y="620" width="140" height="40" rx="5" fill="#ff1493" stroke="#333" stroke-width="2" />
    <text x="180" y="636" font-size="12" fill="#fff" font-weight="bold" text-anchor="middle">煙雨青樓</text>
    <text x="180" y="652" font-size="9" fill="#ddd" text-anchor="middle">spiritual_trial</text>
    <rect x="50" y="680" width="900" height="80" rx="8" fill="#222" stroke="#444" />
    <text x="70" y="700" font-size="12" fill="#fff" font-weight="bold">節點類型說明：</text>
    <rect x="70" y="720" width="12" height="12" rx="2" fill="#d4af37" />
    <text x="88" y="730" font-size="9" fill="#ccc">cultivation</text>
    <rect x="190" y="720" width="12" height="12" rx="2" fill="#708090" />
    <text x="208" y="730" font-size="9" fill="#ccc">travel</text>
    <rect x="310" y="720" width="12" height="12" rx="2" fill="#4169e1" />
    <text x="328" y="730" font-size="9" fill="#ccc">sect_heritage</text>
    <rect x="430" y="720" width="12" height="12" rx="2" fill="#cd7f32" />
    <text x="448" y="730" font-size="9" fill="#ccc">crafting</text>
    <rect x="550" y="720" width="12" height="12" rx="2" fill="#228b22" />
    <text x="568" y="730" font-size="9" fill="#ccc">alchemy</text>
    <rect x="670" y="720" width="12" height="12" rx="2" fill="#9370db" />
    <text x="688" y="730" font-size="9" fill="#ccc">logical_array</text>
    <rect x="790" y="720" width="12" height="12" rx="2" fill="#ff4500" />
    <text x="808" y="730" font-size="9" fill="#ccc">market</text>
    <rect x="70" y="740" width="12" height="12" rx="2" fill="#8b4513" />
    <text x="88" y="750" font-size="9" fill="#ccc">social_info</text>
    <rect x="190" y="740" width="12" height="12" rx="2" fill="#3cb371" />
    <text x="208" y="750" font-size="9" fill="#ccc">nature_resonance</text>
    <rect x="310" y="740" width="12" height="12" rx="2" fill="#2f4f4f" />
    <text x="328" y="750" font-size="9" fill="#ccc">karmic_broker</text>
    <rect x="430" y="740" width="12" height="12" rx="2" fill="#da70d6" />
    <text x="448" y="750" font-size="9" fill="#ccc">spiritual_market</text>
    <rect x="550" y="740" width="12" height="12" rx="2" fill="#ff1493" />
    <text x="568" y="750" font-size="9" fill="#ccc">spiritual_trial</text>
    <rect x="670" y="740" width="12" height="12" rx="2" fill="#00ffff" />
    <text x="688" y="750" font-size="9" fill="#ccc">domain</text>
</svg>